<svg width="17" height="17" viewBox="0 0 17 17" fill="none" xmlns="http://www.w3.org/2000/svg">
<path fill-rule="evenodd" clip-rule="evenodd" d="M8.125 0.406982C3.6375 0.406982 0 4.04448 0 8.53198C0 13.0195 3.6375 16.657 8.125 16.657C12.6125 16.657 16.25 13.0195 16.25 8.53198C16.25 4.04448 12.6125 0.406982 8.125 0.406982ZM6.69167 6.21532C6.63445 6.15391 6.56545 6.10466 6.48878 6.0705C6.41212 6.03634 6.32935 6.01797 6.24543 6.01649C6.16152 6.01501 6.07816 6.03045 6.00034 6.06188C5.92251 6.09331 5.85182 6.1401 5.79247 6.19945C5.73312 6.2588 5.68633 6.32949 5.6549 6.40732C5.62346 6.48514 5.60803 6.5685 5.60951 6.65242C5.61099 6.73634 5.62936 6.8191 5.66352 6.89576C5.69768 6.97243 5.74693 7.04143 5.80833 7.09865L7.24167 8.53198L5.80833 9.96532C5.74693 10.0225 5.69768 10.0915 5.66352 10.1682C5.62936 10.2449 5.61099 10.3276 5.60951 10.4115C5.60803 10.4955 5.62346 10.5788 5.6549 10.6566C5.68633 10.7345 5.73312 10.8052 5.79247 10.8645C5.85182 10.9239 5.92251 10.9707 6.00034 11.0021C6.07816 11.0335 6.16152 11.049 6.24543 11.0475C6.32935 11.046 6.41212 11.0276 6.48878 10.9935C6.56545 10.9593 6.63445 10.9101 6.69167 10.8486L8.125 9.41532L9.55833 10.8486C9.61555 10.9101 9.68455 10.9593 9.76122 10.9935C9.83788 11.0276 9.92065 11.046 10.0046 11.0475C10.0885 11.049 10.1718 11.0335 10.2497 11.0021C10.3275 10.9707 10.3982 10.9239 10.4575 10.8645C10.5169 10.8052 10.5637 10.7345 10.5951 10.6566C10.6265 10.5788 10.642 10.4955 10.6405 10.4115C10.639 10.3276 10.6206 10.2449 10.5865 10.1682C10.5523 10.0915 10.5031 10.0225 10.4417 9.96532L9.00833 8.53198L10.4417 7.09865C10.5031 7.04143 10.5523 6.97243 10.5865 6.89576C10.6206 6.8191 10.639 6.73634 10.6405 6.65242C10.642 6.5685 10.6265 6.48514 10.5951 6.40732C10.5637 6.32949 10.5169 6.2588 10.4575 6.19945C10.3982 6.1401 10.3275 6.09331 10.2497 6.06188C10.1718 6.03045 10.0885 6.01501 10.0046 6.01649C9.92065 6.01797 9.83788 6.03634 9.76122 6.0705C9.68455 6.10466 9.61555 6.15391 9.55833 6.21532L8.125 7.64865L6.69167 6.21532Z" fill="black"/>
</svg>
