<svg width="21" height="21" viewBox="0 0 21 21" fill="none" xmlns="http://www.w3.org/2000/svg">
<path d="M2.68093 11.2598C2.62337 11.0868 2.62337 10.8998 2.68093 10.7268C3.83775 7.24633 7.12142 4.73584 10.9914 4.73584C14.8597 4.73584 18.1417 7.24383 19.3011 10.7227C19.3595 10.8953 19.3595 11.0821 19.3011 11.2556C18.1451 14.7361 14.8614 17.2466 10.9914 17.2466C7.12308 17.2466 3.84026 14.7386 2.68093 11.2598Z" stroke="#4B5563" stroke-width="1.5" stroke-linecap="round" stroke-linejoin="round"/>
<path d="M13.4936 10.9912C13.4936 11.6548 13.23 12.2913 12.7607 12.7605C12.2915 13.2298 11.655 13.4934 10.9914 13.4934C10.3278 13.4934 9.69137 13.2298 9.22212 12.7605C8.75288 12.2913 8.48926 11.6548 8.48926 10.9912C8.48926 10.3276 8.75288 9.69118 9.22212 9.22194C9.69137 8.75269 10.3278 8.48907 10.9914 8.48907C11.655 8.48907 12.2915 8.75269 12.7607 9.22194C13.23 9.69118 13.4936 10.3276 13.4936 10.9912Z" stroke="#4B5563" stroke-width="1.5" stroke-linecap="round" stroke-linejoin="round"/>
</svg>
