<?xml version="1.0" encoding="UTF-8" standalone="no"?>
<!DOCTYPE svg PUBLIC "-//W3C//DTD SVG 1.1//EN" "http://www.w3.org/Graphics/SVG/1.1/DTD/svg11.dtd">
<svg xmlns="http://www.w3.org/2000/svg" version="1.1" viewBox="0.00 0.00 122.00 171.00">
<path fill="#000000" d="
  M 101.50 42.76
  A 41.52 41.52 0.0 0 1 59.98 84.28
  A 41.52 41.52 0.0 0 1 18.46 42.76
  A 41.52 41.52 0.0 0 1 59.98 1.24
  A 41.52 41.52 0.0 0 1 101.50 42.76
  Z
  M 89.50 42.76
  A 29.52 29.52 0.0 0 0 59.98 13.24
  A 29.52 29.52 0.0 0 0 30.46 42.76
  A 29.52 29.52 0.0 0 0 59.98 72.28
  A 29.52 29.52 0.0 0 0 89.50 42.76
  Z"
/>
<path fill="#000000" d="
  M 122.00 129.51
  L 122.00 130.64
  Q 121.76 131.30 122.00 131.96
  Q 122.00 132.12 122.00 132.28
  Q 120.71 146.47 109.90 155.67
  C 99.53 164.48 87.41 168.53 73.99 171.00
  L 48.87 171.00
  Q 33.62 168.79 20.92 161.59
  C 6.10 153.20 -4.36 136.58 3.28 119.44
  C 10.61 103.01 30.32 94.44 46.93 91.91
  C 70.49 88.33 98.03 93.08 114.18 111.06
  Q 120.83 118.46 122.00 129.51
  Z
  M 109.82 131.23
  A 48.50 28.41 0.0 0 0 61.32 102.82
  A 48.50 28.41 0.0 0 0 12.82 131.23
  A 48.50 28.41 0.0 0 0 61.32 159.64
  A 48.50 28.41 0.0 0 0 109.82 131.23
  Z"
/>
</svg>
