<svg width="20" height="20" viewBox="0 0 20 20" fill="none" xmlns="http://www.w3.org/2000/svg">
<g id="video-play">
<path id="Vector" d="M11.7706 11.0549L11.7713 11.0553C12.2907 11.3562 12.4983 11.7222 12.4983 12.0417C12.4983 12.3614 12.2901 12.7276 11.7709 13.0283L11.7702 13.0287L10.0375 14.0284L11.7706 11.0549ZM11.7706 11.0549L10.0375 10.055C10.0374 10.055 10.0374 10.055 10.0373 10.0549C9.51748 9.75402 9.0975 9.75709 8.82183 9.91652C8.54593 10.0761 8.33297 10.4394 8.33297 11.0417M11.7706 11.0549L8.33297 11.0417M8.33297 11.0417V13.0417C8.33297 13.644 8.54593 14.0073 8.82183 14.1669C9.09743 14.3263 9.51725 14.3294 10.0369 14.0287L8.33297 11.0417ZM2.10755 5.20229L1.98352 5.71701H2.51297H6.47502H6.89204V5.29999V2.33156V1.87829L6.44034 1.91598C4.95176 2.04017 3.88836 2.44743 3.16789 3.16789C2.66654 3.66924 2.31566 4.33865 2.10755 5.20229ZM17.487 5.71701H18.0165L17.8924 5.20229C17.6843 4.33865 17.3335 3.66924 16.8321 3.16789C16.1116 2.44743 15.0482 2.04017 13.5597 1.91598L13.108 1.87829V2.33156V5.29999V5.71701H13.525H17.487ZM2.32558 6.13296H1.93908L1.90976 6.51835C1.88634 6.82615 1.87464 7.15301 1.87464 7.5V12.5C1.87464 14.563 2.28857 15.9528 3.16789 16.8321C4.04722 17.7114 5.43697 18.1254 7.5 18.1254H12.5C14.563 18.1254 15.9528 17.7114 16.8321 16.8321C17.7114 15.9528 18.1254 14.563 18.1254 12.5V7.5C18.1254 7.15301 18.1137 6.82615 18.0902 6.51835L18.0609 6.13296H17.6744H2.32558ZM10.2455 9.69483L10.246 9.69512L11.9792 10.695C11.9793 10.6951 11.9794 10.6952 11.9795 10.6952C12.5738 11.0394 12.9142 11.5206 12.9142 12.0417C12.9142 12.5628 12.5738 13.0441 11.9793 13.3883C11.9793 13.3883 11.9792 13.3883 11.9792 13.3884L10.246 14.3883L10.2455 14.3886C9.65113 14.7326 9.06452 14.7877 8.61359 14.5269C8.16271 14.2662 7.91703 13.7297 7.91703 13.0417V11.0417C7.91703 10.3537 8.16271 9.81722 8.61359 9.55646C9.06451 9.29567 9.65111 9.35083 10.2455 9.69483ZM7.30799 5.29999V5.71701H7.72502H12.275H12.692V5.29999V2.29167V1.87464H12.275H7.72502H7.30799V2.29167V5.29999ZM2.87377 2.87377C3.86929 1.87826 5.39599 1.45869 7.5 1.45869H12.5C14.604 1.45869 16.1307 1.87826 17.1262 2.87377C18.1217 3.86929 18.5413 5.39599 18.5413 7.5V12.5C18.5413 14.604 18.1217 16.1307 17.1262 17.1262C16.1307 18.1217 14.604 18.5413 12.5 18.5413H7.5C5.39599 18.5413 3.86929 18.1217 2.87377 17.1262C1.87826 16.1307 1.45869 14.604 1.45869 12.5V7.5C1.45869 5.39599 1.87826 3.86929 2.87377 2.87377Z" fill="white" stroke="#4B5563" stroke-width="0.834051"/>
</g>
</svg>
